<svg width="50" height="50" viewBox="0 0 50 50" fill="none" xmlns="http://www.w3.org/2000/svg">
<path fill-rule="evenodd" clip-rule="evenodd" d="M40.3013 29.0545C39.6616 36.8149 33.1766 42.7874 25.3899 42.7874L24.6101 42.7874C16.8234 42.7874 10.3384 36.8149 9.69876 29.0545C9.35514 24.8858 10.6428 20.7464 13.2906 17.5082L21.9436 6.92579C23.5233 4.99391 26.4767 4.9939 28.0564 6.92579L36.7094 17.5082C39.3572 20.7464 40.6449 24.8858 40.3013 29.0545ZM25.3899 40.0794C31.7673 40.0794 37.0785 35.1879 37.6024 28.8321C37.8884 25.3625 36.8167 21.9174 34.613 19.2224L25.96 8.63996C25.4638 8.03316 24.5362 8.03316 24.04 8.63996L15.387 19.2224C13.1833 21.9174 12.1116 25.3625 12.3976 28.8321C12.9215 35.1879 18.2327 40.0794 24.6101 40.0794L25.3899 40.0794Z" fill="#10BB87"/>
<path d="M17.7787 26.9908C17.0309 26.9908 16.4135 27.6009 16.5302 28.3396C17.1078 31.9954 19.9954 34.883 23.6512 35.4606C24.3898 35.5773 25 34.9599 25 34.2121C25 33.4643 24.3856 32.8742 23.6575 32.7038C21.4952 32.1976 19.7932 30.4956 19.287 28.3333C19.1166 27.6052 18.5265 26.9908 17.7787 26.9908Z" fill="#10BB87"/>
<path fill-rule="evenodd" clip-rule="evenodd" d="M40.5087 29.0718C39.8602 36.9402 33.2849 42.9958 25.3898 42.9958L24.61 42.9958C16.7148 42.9958 10.1396 36.9402 9.49099 29.0718C9.14293 24.8493 10.4472 20.6564 13.1292 17.3765L21.7822 6.79407C23.4452 4.76025 26.5545 4.76024 28.2175 6.79407L36.8705 17.3765C39.5525 20.6564 40.8568 24.8493 40.5087 29.0718ZM25.3898 42.5792C33.068 42.5792 39.4627 36.6899 40.0935 29.0376C40.4327 24.9226 39.1616 20.8366 36.548 17.6402L27.895 7.05783C26.3986 5.22788 23.6011 5.22789 22.1048 7.05783L13.4518 17.6402C10.8381 20.8366 9.56706 24.9226 9.90624 29.0376C10.537 36.6899 16.9317 42.5792 24.61 42.5792L25.3898 42.5792ZM25.3898 39.8712C31.6587 39.8712 36.8797 35.0629 37.3947 28.8151C37.6762 25.3994 36.6211 22.0077 34.4516 19.3544L25.7986 8.77199C25.3858 8.26714 24.614 8.26714 24.2012 8.77199L15.5481 19.3544C13.3786 22.0077 12.3235 25.3994 12.6051 28.8151C13.1201 35.0629 18.341 39.8712 24.61 39.8712L25.3898 39.8712ZM37.8099 28.8494C37.2771 35.3132 31.8755 40.2879 25.3898 40.2879L24.61 40.2879C18.1242 40.2879 12.7226 35.3132 12.1898 28.8494C11.8994 25.326 12.9877 21.8275 15.2256 19.0907L23.8786 8.50824C24.4581 7.7995 25.5416 7.7995 26.1211 8.50824L34.7742 19.0906C37.012 21.8275 38.1003 25.326 37.8099 28.8494ZM25.2082 34.2122C25.2082 35.0644 24.5059 35.8067 23.6186 35.6665C19.8736 35.0749 16.9159 32.1173 16.3243 28.3722C16.1841 27.4849 16.9264 26.7826 17.7786 26.7826C18.6501 26.7826 19.304 27.4927 19.4897 28.286C19.9778 30.3712 21.6196 32.013 23.7048 32.5011C24.4981 32.6868 25.2082 33.3407 25.2082 34.2122ZM23.6836 35.255C24.2735 35.3482 24.7915 34.8556 24.7915 34.2122C24.7915 33.5882 24.2727 33.062 23.6098 32.9068C21.3705 32.3826 19.6082 30.6204 19.084 28.381C18.9289 27.7181 18.4027 27.1993 17.7786 27.1993C17.1352 27.1993 16.6426 27.7173 16.7358 28.3072C17.2993 31.8738 20.117 34.6915 23.6836 35.255Z" fill="#10BB87"/>
</svg>
