<svg width="50" height="50" viewBox="0 0 50 50" fill="none" xmlns="http://www.w3.org/2000/svg">
<path fill-rule="evenodd" clip-rule="evenodd" d="M25 4.6875C25.8629 4.6875 26.5625 5.38706 26.5625 6.25V29.1667C26.5625 30.0296 25.8629 30.7292 25 30.7292C24.1371 30.7292 23.4375 30.0296 23.4375 29.1667V6.25C23.4375 5.38706 24.1371 4.6875 25 4.6875Z" fill="#10BB87"/>
<path d="M26.5625 34.8958C26.5625 35.7587 25.8629 36.4583 25 36.4583C24.1371 36.4583 23.4375 35.7587 23.4375 34.8958C23.4375 34.0328 24.1371 33.3333 25 33.3333C25.8629 33.3333 26.5625 34.0328 26.5625 34.8958Z" fill="#10BB87"/>
<path fill-rule="evenodd" clip-rule="evenodd" d="M11.3952 23.8951C12.0053 23.285 12.9947 23.285 13.6049 23.8951L19.8549 30.1451C20.4651 30.7553 20.4651 31.7447 19.8549 32.3549C19.2447 32.965 18.2553 32.965 17.6452 32.3549L11.3952 26.1049C10.785 25.4947 10.785 24.5053 11.3952 23.8951ZM38.6049 23.8951C39.2151 24.5053 39.2151 25.4947 38.6049 26.1049L32.3549 32.3549C31.7447 32.965 30.7553 32.965 30.1452 32.3549C29.535 31.7447 29.535 30.7553 30.1452 30.1451L36.3952 23.8951C37.0054 23.285 37.9947 23.285 38.6049 23.8951ZM8.85417 37.5C8.85417 36.6371 9.55373 35.9375 10.4167 35.9375H18.75C19.613 35.9375 20.3125 36.6371 20.3125 37.5C20.3125 38.3629 19.613 39.0625 18.75 39.0625H10.4167C9.55373 39.0625 8.85417 38.3629 8.85417 37.5ZM39.5833 39.0625H31.25C30.3871 39.0625 29.6875 38.3629 29.6875 37.5C29.6875 36.6371 30.3871 35.9375 31.25 35.9375H39.5833C40.4463 35.9375 41.1458 36.6371 41.1458 37.5C41.1458 38.3629 40.4463 39.0625 39.5833 39.0625Z" fill="#10BB87"/>
<path fill-rule="evenodd" clip-rule="evenodd" d="M25 40.1042C25.8629 40.1042 26.5625 40.8038 26.5625 41.6667V43.7501C26.5625 44.613 25.8629 45.3126 25 45.3126C24.1371 45.3126 23.4375 44.613 23.4375 43.7501V41.6667C23.4375 40.8038 24.1371 40.1042 25 40.1042Z" fill="#10BB87"/>
</svg>
