<?xml version="1.0" standalone="no"?>
<!DOCTYPE svg PUBLIC "-//W3C//DTD SVG 20010904//EN"
 "http://www.w3.org/TR/2001/REC-SVG-20010904/DTD/svg10.dtd">
<svg version="1.0" xmlns="http://www.w3.org/2000/svg"
 width="700.000000pt" height="700.000000pt" viewBox="0 0 700.000000 700.000000"
 preserveAspectRatio="xMidYMid meet">
<metadata>
Created by potrace 1.14, written by Peter Selinger 2001-2017
</metadata>
<g transform="translate(0.000000,700.000000) scale(0.100000,-0.100000)"
fill="#000000" stroke="none">
<path d="M3097 6994 c-1 -1 -22 -4 -47 -7 -46 -6 -155 -23 -200 -32 -131 -26
-158 -32 -338 -81 -147 -39 -399 -138 -562 -220 -254 -128 -466 -266 -693
-453 -140 -115 -403 -382 -466 -473 -8 -13 -26 -34 -38 -48 -37 -40 -166 -226
-239 -345 -114 -187 -214 -393 -294 -610 -13 -33 -26 -69 -31 -80 -42 -107
-120 -421 -144 -584 -2 -14 -7 -44 -10 -66 -22 -150 -30 -276 -30 -500 1 -192
8 -341 19 -402 2 -10 7 -47 11 -83 22 -219 122 -595 221 -834 158 -382 356
-701 629 -1015 87 -100 299 -302 412 -392 138 -111 259 -199 272 -199 5 0 11
-4 13 -8 10 -25 349 -213 498 -277 47 -20 99 -43 115 -50 42 -19 247 -89 330
-114 150 -44 440 -101 588 -116 l57 -5 0 1910 0 1910 -955 0 -955 0 0 -320 0
-320 636 -2 636 -3 1 -1187 c0 -654 -2 -1190 -5 -1193 -13 -13 -301 117 -455
207 -96 55 -299 194 -367 251 -163 136 -329 302 -438 439 -27 35 -57 72 -66
84 -101 124 -289 450 -337 583 -7 20 -21 54 -31 76 -10 22 -19 45 -20 50 -1 6
-11 35 -23 65 -49 131 -110 379 -126 515 -4 28 -8 57 -10 65 -26 100 -25 606
1 744 2 10 6 44 10 75 3 31 8 59 10 62 2 4 6 24 10 45 18 123 93 373 163 546
104 260 310 592 495 798 329 366 729 642 1155 797 234 85 326 108 639 159 l32
5 0 319 0 319 -36 -2 c-20 -1 -36 -3 -37 -3z"/>
<path d="M3810 3500 l0 -3501 53 6 c67 8 113 14 157 21 36 6 60 10 120 20 40
6 230 51 275 65 l30 9 0 1530 0 1530 1277 0 1277 0 -5 98 c-2 53 -6 131 -9
172 -2 41 -7 136 -10 210 -3 74 -7 153 -10 175 -11 95 -17 141 -20 155 -2 8
-7 39 -10 69 -4 30 -8 61 -10 70 -3 13 -33 157 -50 234 -16 73 -95 316 -142
432 -185 468 -448 868 -797 1212 -120 118 -232 217 -323 285 -32 24 -60 46
-63 49 -3 3 -52 38 -110 76 -270 180 -566 325 -861 423 -95 31 -263 78 -309
86 -14 3 -33 7 -42 10 -19 5 -49 12 -93 19 -16 3 -41 7 -55 10 -14 2 -43 7
-65 10 -22 3 -51 8 -65 10 -14 2 -51 6 -82 9 l-58 6 0 -3500z m763 2664 c263
-107 535 -272 752 -457 93 -80 306 -296 376 -382 51 -63 166 -222 196 -270
135 -219 223 -403 302 -627 50 -145 111 -410 127 -555 l5 -52 -940 -1 -941 0
0 1195 c0 657 3 1195 6 1195 3 0 56 -21 117 -46z"/>
</g>
</svg>
